solid OpenSCAD_Model
  facet normal -0 0 1
    outer loop
      vertex -18 46 165
      vertex 18 41 165
      vertex 18 46 165
    endloop
  endfacet
  facet normal 0 0 1
    outer loop
      vertex 18 41 165
      vertex -18 46 165
      vertex -18 41 165
    endloop
  endfacet
  facet normal 0 0 -1
    outer loop
      vertex -18 41 149.5
      vertex 18 46 149.5
      vertex 18 41 149.5
    endloop
  endfacet
  facet normal -0 0 -1
    outer loop
      vertex 18 46 149.5
      vertex -18 41 149.5
      vertex -18 46 149.5
    endloop
  endfacet
  facet normal 0 -1 0
    outer loop
      vertex -18 41 149.5
      vertex 18 41 165
      vertex -18 41 165
    endloop
  endfacet
  facet normal 0 -1 -0
    outer loop
      vertex 18 41 165
      vertex -18 41 149.5
      vertex 18 41 149.5
    endloop
  endfacet
  facet normal 1 -0 0
    outer loop
      vertex 18 41 165
      vertex 18 46 149.5
      vertex 18 46 165
    endloop
  endfacet
  facet normal 1 0 0
    outer loop
      vertex 18 46 149.5
      vertex 18 41 165
      vertex 18 41 149.5
    endloop
  endfacet
  facet normal 0 1 -0
    outer loop
      vertex 18 46 149.5
      vertex -18 46 165
      vertex 18 46 165
    endloop
  endfacet
  facet normal 0 1 0
    outer loop
      vertex -18 46 165
      vertex 18 46 149.5
      vertex -18 46 149.5
    endloop
  endfacet
  facet normal -1 0 0
    outer loop
      vertex -18 41 149.5
      vertex -18 46 165
      vertex -18 46 149.5
    endloop
  endfacet
  facet normal -1 -0 0
    outer loop
      vertex -18 46 165
      vertex -18 41 149.5
      vertex -18 41 165
    endloop
  endfacet
endsolid OpenSCAD_Model
