solid OpenSCAD_Model
  facet normal 0 0 -1
    outer loop
      vertex 46 -46 0
      vertex -36 -36 0
      vertex 36 -36 0
    endloop
  endfacet
  facet normal 0 -0 -1
    outer loop
      vertex -36 -36 0
      vertex 46 -46 0
      vertex -46 -46 0
    endloop
  endfacet
  facet normal -0 0 1
    outer loop
      vertex -41 -41 10
      vertex 46 -46 10
      vertex 41 -41 10
    endloop
  endfacet
  facet normal 0 0 1
    outer loop
      vertex 46 -46 10
      vertex -41 -41 10
      vertex -46 -46 10
    endloop
  endfacet
  facet normal 0 -1 0
    outer loop
      vertex -46 -46 0
      vertex 46 -46 10
      vertex -46 -46 10
    endloop
  endfacet
  facet normal 0 -1 -0
    outer loop
      vertex 46 -46 10
      vertex -46 -46 0
      vertex 46 -46 0
    endloop
  endfacet
  facet normal 0 1 -0
    outer loop
      vertex 36 -36 0
      vertex -36 -36 5
      vertex 36 -36 5
    endloop
  endfacet
  facet normal 0 1 0
    outer loop
      vertex -36 -36 5
      vertex 36 -36 0
      vertex -36 -36 0
    endloop
  endfacet
  facet normal -0 0 1
    outer loop
      vertex -36 -36 5
      vertex 41 -41 5
      vertex 36 -36 5
    endloop
  endfacet
  facet normal 0 0 1
    outer loop
      vertex 41 -41 5
      vertex -36 -36 5
      vertex -41 -41 5
    endloop
  endfacet
  facet normal 0 1 -0
    outer loop
      vertex 41 -41 5
      vertex -41 -41 10
      vertex 41 -41 10
    endloop
  endfacet
  facet normal 0 1 0
    outer loop
      vertex -41 -41 10
      vertex 41 -41 5
      vertex -41 -41 5
    endloop
  endfacet
  facet normal 0.707107 0.707107 0
    outer loop
      vertex 41 -41 10
      vertex 46 -46 10
      vertex 41 -41 5
    endloop
  endfacet
  facet normal 0.707107 0.707107 0
    outer loop
      vertex 41 -41 5
      vertex 36 -36 0
      vertex 36 -36 5
    endloop
  endfacet
  facet normal 0.707107 0.707107 -0
    outer loop
      vertex 46 -46 0
      vertex 41 -41 5
      vertex 46 -46 10
    endloop
  endfacet
  facet normal 0.707107 0.707107 0
    outer loop
      vertex 41 -41 5
      vertex 46 -46 0
      vertex 36 -36 0
    endloop
  endfacet
  facet normal -0.707107 0.707107 0
    outer loop
      vertex -36 -36 0
      vertex -41 -41 5
      vertex -36 -36 5
    endloop
  endfacet
  facet normal -0.707107 0.707107 0
    outer loop
      vertex -46 -46 0
      vertex -41 -41 5
      vertex -36 -36 0
    endloop
  endfacet
  facet normal -0.707107 0.707107 0
    outer loop
      vertex -46 -46 10
      vertex -41 -41 5
      vertex -46 -46 0
    endloop
  endfacet
  facet normal -0.707107 0.707107 0
    outer loop
      vertex -41 -41 5
      vertex -46 -46 10
      vertex -41 -41 10
    endloop
  endfacet
endsolid OpenSCAD_Model
